<?xml version="1.0" encoding="UTF-8" standalone="no"?>
<!-- Generator: Adobe Illustrator 22.0.1, SVG Export Plug-In . SVG Version: 6.00 Build 0)  -->

<svg
   version="1.1"
   id="Capa_1"
   x="0px"
   y="0px"
   viewBox="0 0 427.07211 393.84118"
   xml:space="preserve"
   sodipodi:docname="coffee-5009730.svg"
   inkscape:version="1.1.2 (0a00cf5, 2022-02-04)"
   width="112.99616mm"
   height="104.20381mm"
   xmlns:inkscape="http://www.inkscape.org/namespaces/inkscape"
   xmlns:sodipodi="http://sodipodi.sourceforge.net/DTD/sodipodi-0.dtd"
   xmlns="http://www.w3.org/2000/svg"
   xmlns:svg="http://www.w3.org/2000/svg"><defs
   id="defs67" /><sodipodi:namedview
   id="namedview65"
   pagecolor="#ffffff"
   bordercolor="#666666"
   borderopacity="1.0"
   inkscape:pageshadow="2"
   inkscape:pageopacity="0.0"
   inkscape:pagecheckerboard="0"
   showgrid="false"
   inkscape:zoom="1.2145137"
   inkscape:cx="166.7334"
   inkscape:cy="157.67628"
   inkscape:window-width="1920"
   inkscape:window-height="997"
   inkscape:window-x="0"
   inkscape:window-y="0"
   inkscape:window-maximized="1"
   inkscape:current-layer="Capa_1"
   inkscape:snap-page="true"
   units="mm"
   fit-margin-top="0"
   fit-margin-left="0"
   fit-margin-right="0"
   fit-margin-bottom="0"
   inkscape:document-units="mm" />
<style
   type="text/css"
   id="style2">
	.st0{fill:#FFFFFF;}
	.st1{fill:#9D9D9C;}
	.st2{fill:#F9C7C3;}
	.st3{fill:#EFBDBB;}
	.st4{fill:#F7D0CD;}
	.st5{fill:#E0B1B1;}
	.st6{fill:#CEA275;}
	.st7{fill:#C69A71;}
	.st8{fill:#BC926F;}
	.st9{fill:#878787;}
	.st10{opacity:0.68;fill:#FFFFFF;}
	.st11{fill:#E0C0A6;}
	.st12{fill:#EDEDED;}
</style>

<path
   class="st2"
   d="m 278.99367,42.72547 v 308.57285 c 0,23.37119 -62.44492,42.54288 -139.49684,42.54288 C 62.444918,393.8412 0,374.8521 0,351.29832 v -308.57285 0 c 0.54776244,23.3712 62.810093,42.17771 139.49683,42.17771 76.68674,0.18259 138.94907,-18.80651 139.49684,-42.17771 z"
   id="path14"
   style="stroke-width:1.82587" /><path
   class="st3"
   d="M 137.48837,393.8412 C 61.349393,393.47602 0,374.66951 0,351.29832 v -308.57285 0 c 0.36517496,20.4498 48.750857,37.61303 112.65647,41.44736 z"
   id="path16"
   style="stroke-width:1.82587" /><path
   class="st4"
   d="m 278.99367,42.54289 c 0,0.18258 0,0.18258 0,0.36517 -0.54777,23.3712 -62.8101,42.17771 -139.49684,42.17771 C 62.810093,85.08577 0.54776244,66.27926 0,42.90806 0,42.72547 0,42.72547 0,42.54289 0,19.17169 62.444918,0 139.49683,0 216.54875,0 278.99367,18.9891 278.99367,42.54289 Z"
   id="path18"
   style="stroke-width:1.82587" /><path
   class="st5"
   d="m 255.62247,42.3603 c 0,4.74727 -4.19951,9.12937 -11.50301,13.1463 C 226.77365,44.55135 185.32629,36.88267 136.94061,36.88267 90.928565,36.88267 51.307082,43.821 32.500571,53.86331 26.84036,50.39415 23.736372,46.37722 23.736372,42.3603 c 0,-16.61546 51.854845,-30.30952 115.943048,-30.30952 63.90562,0.18259 115.94305,13.69406 115.94305,30.30952 z"
   id="path20"
   style="stroke-width:1.82587" /><path
   class="st6"
   d="m 243.93687,55.5066 c -18.80651,10.04231 -58.42799,16.98063 -104.44004,16.98063 -48.385677,0 -89.833035,-7.66867 -107.178846,-18.62392 8.764199,-11.13784 19.719448,-8.58161 33.961271,-14.05924 23.18861,-8.94678 64.270795,-7.85126 81.434015,-4.92986 18.44133,3.28658 36.88267,-0.54776 51.48967,4.19951 28.30106,9.31197 41.44736,6.20798 44.73393,16.43288 z"
   id="path22"
   style="stroke-width:1.82587" /><path
   class="st7"
   d="m 225.67812,62.62751 c -21.18014,6.02539 -51.85484,9.85972 -85.9987,9.85972 -34.50903,0 -65.548903,-4.01692 -86.729051,-10.2249 8.764199,-3.28657 17.710986,-6.39056 26.657772,-9.31196 4.747275,-1.4607 9.494549,-2.9214 14.424411,-3.28657 8.033848,-0.73035 16.250288,1.4607 24.284138,2.37364 18.98909,2.37363 38.52595,-1.27812 57.33246,2.19105 4.3821,0.91293 8.7642,2.00846 13.1463,2.55622 5.11245,0.54776 10.04231,0.36518 15.15476,0.73035 7.3035,0.73035 14.78959,2.37364 21.72791,5.11245 z"
   id="path24"
   style="stroke-width:1.82587" /><path
   class="st2"
   d="m 427.07211,185.14371 c 0,60.80163 -49.29862,109.91766 -109.91766,109.91766 -13.32889,0 -26.2926,-2.37364 -38.16078,-6.75574 V 231.8861 c 10.40748,8.39903 23.55378,13.51148 38.16078,13.51148 33.23092,0 60.25387,-27.02295 60.25387,-60.25387 0,-33.23092 -27.02295,-60.25387 -60.25387,-60.25387 -14.42441,0 -27.7533,5.11245 -38.16078,13.51147 V 81.98178 c 11.86818,-4.3821 24.64931,-6.75573 38.16078,-6.75573 60.61904,0 109.91766,49.29862 109.91766,109.91766 z"
   id="path26"
   style="stroke-width:1.82587" /><path
   class="st3"
   d="m 314.05046,75.22605 v 49.66379 c -13.32888,0.73035 -25.37966,5.66021 -35.05679,13.51147 V 81.98178 c 10.95525,-4.01692 22.82343,-6.39056 35.05679,-6.75573 z"
   id="path28"
   style="stroke-width:1.82587" /><path
   class="st3"
   d="m 278.99367,231.8861 c 9.67713,7.85127 21.72791,12.78113 35.05679,13.51148 v 49.66379 c -12.23336,-0.36517 -24.10154,-2.73881 -35.05679,-6.75574 z"
   id="path30"
   style="stroke-width:1.82587" /><circle
   class="st9"
   cx="43.309471"
   cy="211.4585"
   r="11.773578"
   id="circle44"
   style="stroke-width:3.46281" /><circle
   class="st9"
   cx="175.24281"
   cy="211.4585"
   r="11.773578"
   id="circle46"
   style="stroke-width:3.46281" /><path
   class="st9"
   d="m 132.65018,248.85689 c 3.11654,6.92563 1.73141,16.27524 -3.8091,23.20087 -5.19422,6.92564 -14.19755,11.4273 -23.20087,11.08102 -9.003326,0 -18.006646,-4.15538 -23.200866,-11.08102 -5.19423,-6.92563 -6.92564,-15.92895 -3.8091,-23.20087 3.11654,6.92563 7.27192,11.77359 12.11986,14.89011 4.84794,3.11654 9.695886,4.50167 14.890106,4.50167 5.19422,0 10.04218,-1.38513 14.89011,-4.50167 4.84796,-3.46281 9.00332,-7.96448 12.11986,-14.89011 z"
   id="path48"
   style="stroke-width:3.46281" /><path
   class="st10"
   d="m 361.15803,98.77983 c -3.10398,-0.91294 1.82588,-5.8428 4.74728,-6.02539 4.92986,-0.18258 15.33735,6.93833 17.5284,10.95525 2.19105,4.01693 -6.39057,5.11245 -6.39057,5.11245 0,0 -7.48608,-9.12937 -15.88511,-10.04231"
   id="path50"
   style="stroke-width:1.82587" />
</svg>
